<?xml version="1.0" encoding="utf-8"?>
<!-- Generator: Adobe Illustrator 25.4.1, SVG Export Plug-In . SVG Version: 6.00 Build 0)  -->
<svg version="1.1" id="Lager_1" xmlns="http://www.w3.org/2000/svg" xmlns:xlink="http://www.w3.org/1999/xlink" x="0px" y="0px"
	 viewBox="0 0 1920 1080" enable-background="new 0 0 1920 1080" xml:space="preserve">
<g>
	<g>
		<path fill="#FFFFFF" d="M57.1,726.6l275.5-594.4h118.5L182.4,719.8h402.5v106.7H57.1V726.6z M411,469.7h112.3v483.2H411V469.7z"/>
		<path fill="#FFFFFF" d="M785.5,899.3c-39.7-41-59.5-98.2-59.5-171.6V354.6c0-73.8,19.9-131,59.8-171.9
			c39.9-40.8,98-61.2,174.4-61.2c76.8,0,135,20.3,174.7,61s59.6,98,59.6,172.2v373.1c0,73.8-20,131.1-59.8,171.9
			s-98,61.2-174.4,61.2C883.5,960.8,825.2,940.3,785.5,899.3z M1050.3,819.4c19.4-21.3,29.1-51.8,29.1-91.7V354.6
			c0-39.9-9.6-70.5-28.8-91.7c-19.2-21.2-49.3-31.9-90.3-31.9c-41,0-71.1,10.6-90.3,31.9c-19.2,21.3-28.8,51.8-28.8,91.7v373.1
			c0,39.9,9.7,70.5,29.1,91.7s49.4,31.9,90,31.9C1000.9,851.3,1030.9,840.7,1050.3,819.4z"/>
		<path fill="#FFFFFF" d="M1352.5,726.6L1628,132.2h118.5l-268.7,587.6h402.5v106.7h-527.8V726.6z M1706.5,469.7h112.3v483.2h-112.3
			V469.7z"/>
	</g>
</g>
<rect x="2059.3" y="784.6" fill="none" width="4.6" height="2.3"/>
</svg>
